<?xml version="1.0" encoding="utf-8"?>
<!-- Generator: Adobe Illustrator 23.0.6, SVG Export Plug-In . SVG Version: 6.00 Build 0)  -->
<svg version="1.1" id="Capa_1" xmlns="http://www.w3.org/2000/svg" xmlns:xlink="http://www.w3.org/1999/xlink" x="0px" y="0px"
	 viewBox="0 0 301.18 448.24" style="enable-background:new 0 0 301.18 448.24;" xml:space="preserve">
<style type="text/css">
	.st0{fill:#503B6D;}
</style>
<g>
	<g>
		<g>
			<path class="st0" d="M162.46,249.83v-18.71h7.02c0.86,0,1.69,0.11,2.49,0.33c0.8,0.22,1.54,0.54,2.23,0.95
				c0.69,0.41,1.32,0.9,1.89,1.47c0.57,0.57,1.06,1.2,1.47,1.89c0.41,0.69,0.72,1.44,0.95,2.23c0.22,0.8,0.33,1.63,0.33,2.49
				s-0.11,1.69-0.33,2.49c-0.22,0.8-0.54,1.54-0.95,2.23c-0.41,0.69-0.9,1.32-1.47,1.89c-0.57,0.57-1.2,1.06-1.89,1.46
				c-0.69,0.4-1.44,0.72-2.23,0.94c-0.8,0.22-1.63,0.33-2.49,0.33H162.46z M169.48,247.25c0.93,0,1.81-0.18,2.63-0.53
				s1.54-0.84,2.15-1.45c0.61-0.61,1.1-1.33,1.46-2.15c0.36-0.82,0.53-1.7,0.53-2.63c0-0.93-0.18-1.81-0.53-2.63
				c-0.36-0.82-0.84-1.54-1.46-2.15c-0.61-0.61-1.33-1.1-2.15-1.46c-0.82-0.36-1.7-0.53-2.63-0.53h-4.44v13.54H169.48z"/>
			<path class="st0" d="M185.34,249.83h-2.58v-18.71h2.58V249.83z"/>
			<path class="st0" d="M197.18,234.31c-0.34-0.25-0.68-0.44-1.03-0.59c-0.35-0.15-0.67-0.22-0.98-0.22c-0.41,0-0.79,0.06-1.15,0.17
				c-0.36,0.11-0.68,0.27-0.95,0.47c-0.27,0.2-0.49,0.44-0.65,0.71c-0.16,0.27-0.24,0.57-0.24,0.9c0,0.37,0.06,0.69,0.18,0.95
				s0.32,0.49,0.59,0.7c0.27,0.2,0.62,0.4,1.05,0.58c0.43,0.18,0.95,0.38,1.57,0.59c0.3,0.12,0.61,0.24,0.92,0.35
				s0.61,0.23,0.91,0.35c0.3,0.13,0.59,0.26,0.87,0.41c0.29,0.15,0.56,0.32,0.82,0.52c1.31,1,1.97,2.35,1.97,4.05
				c0,0.85-0.17,1.63-0.52,2.34c-0.35,0.71-0.82,1.31-1.41,1.82c-0.59,0.51-1.28,0.91-2.05,1.19c-0.77,0.28-1.58,0.42-2.43,0.42
				c-1.68,0-3.09-0.5-4.22-1.5c-0.23-0.2-0.43-0.4-0.6-0.61c-0.17-0.2-0.32-0.4-0.45-0.59c-0.13-0.19-0.23-0.37-0.32-0.52
				c-0.09-0.16-0.16-0.29-0.21-0.39l0.63-0.33c0.33-0.2,0.67-0.3,1.03-0.3c0.57,0,1.04,0.2,1.44,0.61l0.21,0.17
				c0.33,0.28,0.7,0.49,1.1,0.65c0.4,0.15,0.87,0.23,1.39,0.23c0.43,0,0.87-0.07,1.32-0.21c0.45-0.14,0.86-0.34,1.23-0.61
				c0.37-0.27,0.67-0.6,0.91-0.99c0.24-0.4,0.36-0.85,0.36-1.38c0-0.5-0.11-0.92-0.34-1.25c-0.23-0.33-0.52-0.61-0.88-0.85
				c-0.36-0.24-0.77-0.44-1.21-0.6c-0.45-0.17-0.89-0.34-1.32-0.51c-0.64-0.25-1.27-0.51-1.89-0.78c-0.61-0.27-1.16-0.6-1.65-0.99
				c-0.48-0.39-0.87-0.86-1.16-1.42c-0.29-0.56-0.44-1.26-0.44-2.1c0-0.77,0.16-1.45,0.48-2.05c0.32-0.6,0.74-1.11,1.26-1.52
				c0.52-0.41,1.12-0.73,1.79-0.95c0.67-0.22,1.36-0.33,2.06-0.33c0.51,0,1.02,0.09,1.53,0.26c0.5,0.17,0.98,0.4,1.42,0.67
				s0.84,0.57,1.2,0.89c0.36,0.32,0.65,0.63,0.89,0.91l-0.67,0.5c-0.37,0.31-0.79,0.47-1.27,0.47
				C197.87,234.61,197.5,234.51,197.18,234.31z"/>
			<path class="st0" d="M215.81,249.83h-11.57v-18.71h11.57v2.58h-8.98v5.39h7.27v2.58h-7.27v5.56h8.98V249.83z"/>
			<path class="st0" d="M235.25,249.83h-2.1l-10.69-14.61c-0.07-0.1-0.13-0.2-0.18-0.32c-0.05-0.12-0.09-0.24-0.12-0.36
				c-0.04-0.13-0.07-0.27-0.09-0.42v15.7h-2.58v-18.71h1.84c0.42,0,0.78,0.06,1.1,0.18c0.31,0.12,0.56,0.31,0.74,0.56l9.07,12.49
				c0.24,0.34,0.38,0.77,0.43,1.29v-14.53h2.58V249.83z M228.9,229.82c-0.33,0-0.65-0.06-0.95-0.18s-0.59-0.26-0.87-0.4
				c-0.27-0.15-0.52-0.28-0.74-0.41c-0.22-0.12-0.41-0.18-0.57-0.18c-0.14,0-0.25,0.03-0.33,0.1c-0.08,0.07-0.15,0.16-0.2,0.26
				c-0.05,0.1-0.08,0.22-0.09,0.34s-0.02,0.23-0.02,0.33h-1.7v-0.13c0-0.36,0.05-0.69,0.16-1.01c0.1-0.32,0.26-0.59,0.46-0.83
				c0.2-0.24,0.44-0.42,0.73-0.55c0.29-0.13,0.62-0.2,0.99-0.2c0.3,0,0.59,0.06,0.87,0.18c0.29,0.12,0.56,0.26,0.83,0.4
				c0.27,0.15,0.52,0.28,0.76,0.4s0.47,0.18,0.67,0.18c0.16,0,0.28-0.02,0.38-0.07c0.1-0.05,0.17-0.11,0.22-0.19
				c0.05-0.08,0.09-0.17,0.1-0.29c0.01-0.11,0.02-0.24,0.02-0.37h1.7c-0.03,0.42-0.09,0.78-0.17,1.09
				c-0.08,0.31-0.21,0.57-0.39,0.78c-0.18,0.21-0.42,0.38-0.71,0.5C229.75,229.71,229.37,229.79,228.9,229.82z"/>
			<path class="st0" d="M238.73,240.48c0-0.88,0.11-1.73,0.34-2.54c0.23-0.81,0.55-1.58,0.97-2.29c0.42-0.71,0.92-1.35,1.49-1.93
				c0.58-0.58,1.22-1.08,1.93-1.49c0.71-0.42,1.47-0.74,2.28-0.97c0.81-0.23,1.66-0.34,2.54-0.34s1.73,0.11,2.54,0.34
				c0.81,0.23,1.57,0.55,2.28,0.97c0.71,0.42,1.35,0.92,1.93,1.49c0.58,0.58,1.08,1.22,1.49,1.93c0.42,0.71,0.74,1.47,0.97,2.29
				c0.23,0.81,0.34,1.66,0.34,2.54s-0.11,1.73-0.34,2.54c-0.23,0.81-0.55,1.58-0.97,2.29c-0.42,0.71-0.92,1.35-1.49,1.93
				c-0.58,0.58-1.22,1.08-1.93,1.49c-0.71,0.42-1.47,0.74-2.28,0.97c-0.81,0.23-1.66,0.34-2.54,0.34c-1.32,0-2.56-0.25-3.72-0.75
				s-2.17-1.18-3.04-2.05s-1.55-1.88-2.05-3.03S238.73,241.8,238.73,240.48z M241.32,240.48c0,0.97,0.18,1.87,0.55,2.72
				c0.37,0.84,0.86,1.58,1.49,2.21c0.63,0.63,1.37,1.13,2.21,1.49c0.84,0.37,1.75,0.55,2.72,0.55c0.97,0,1.87-0.18,2.72-0.55
				c0.84-0.37,1.58-0.86,2.21-1.49c0.63-0.63,1.13-1.37,1.49-2.21c0.37-0.84,0.55-1.75,0.55-2.72c0-0.97-0.18-1.87-0.55-2.72
				c-0.37-0.84-0.86-1.58-1.49-2.21c-0.63-0.63-1.37-1.13-2.21-1.49c-0.84-0.37-1.75-0.55-2.72-0.55c-0.97,0-1.87,0.18-2.72,0.55
				c-0.84,0.37-1.58,0.86-2.21,1.49c-0.63,0.63-1.13,1.37-1.49,2.21C241.5,238.6,241.32,239.51,241.32,240.48z"/>
			<path class="st0" d="M277.13,249.83h-2.58v-7.91c0-0.19-0.02-0.36-0.05-0.51c-0.04-0.15-0.08-0.29-0.15-0.42
				s-0.15-0.27-0.24-0.41c-0.1-0.14-0.2-0.29-0.33-0.46l-6.64-8.99h1.77c0.5,0,0.95,0.1,1.34,0.29c0.39,0.2,0.71,0.49,0.96,0.88
				l4.43,5.98c0.06,0.1,0.11,0.21,0.14,0.33c0.03,0.13,0.05,0.23,0.07,0.31c0-0.07,0.02-0.17,0.05-0.3
				c0.03-0.13,0.09-0.24,0.16-0.34l4.43-5.98c0.25-0.39,0.57-0.68,0.96-0.88c0.39-0.2,0.83-0.29,1.34-0.29h1.78l-6.64,8.99
				c-0.12,0.17-0.23,0.32-0.33,0.46c-0.1,0.14-0.18,0.28-0.24,0.41s-0.12,0.28-0.15,0.42c-0.03,0.15-0.05,0.32-0.05,0.51V249.83z"/>
			<path class="st0" d="M177.86,271.63v7.55c-0.44,0.44-0.92,0.79-1.44,1.08c-0.53,0.28-1.09,0.51-1.68,0.67
				c-0.59,0.17-1.21,0.28-1.85,0.34c-0.64,0.06-1.29,0.09-1.95,0.09c-1.32,0-2.56-0.25-3.72-0.75s-2.17-1.18-3.04-2.05
				s-1.55-1.88-2.05-3.03c-0.5-1.16-0.75-2.4-0.75-3.72c0-0.88,0.11-1.73,0.34-2.54c0.23-0.81,0.55-1.57,0.97-2.28
				c0.42-0.71,0.92-1.35,1.49-1.93c0.58-0.58,1.22-1.08,1.93-1.49c0.71-0.42,1.47-0.74,2.28-0.97c0.81-0.23,1.66-0.34,2.54-0.34
				c0.69,0,1.36,0.07,2.01,0.21c0.65,0.14,1.28,0.35,1.87,0.61c0.59,0.26,1.15,0.58,1.68,0.96c0.53,0.38,1.01,0.8,1.44,1.27
				l-0.48,0.48c-0.21,0.21-0.43,0.37-0.66,0.47c-0.23,0.1-0.5,0.16-0.8,0.16c-0.39,0-0.75-0.11-1.08-0.34
				c-0.57-0.39-1.19-0.7-1.86-0.91c-0.67-0.22-1.37-0.33-2.11-0.33c-0.97,0-1.87,0.18-2.72,0.55c-0.84,0.37-1.58,0.86-2.21,1.49
				c-0.63,0.63-1.13,1.37-1.49,2.21s-0.55,1.75-0.55,2.72c0,0.97,0.19,1.87,0.57,2.72c0.38,0.84,0.89,1.58,1.54,2.21
				c0.65,0.63,1.4,1.13,2.26,1.49c0.86,0.37,1.77,0.55,2.73,0.55c0.8,0,1.56-0.09,2.27-0.28c0.71-0.19,1.37-0.47,1.96-0.84v-3.43
				h-1.04c-0.3,0-0.58-0.05-0.83-0.16c-0.25-0.11-0.46-0.25-0.63-0.44c-0.17-0.18-0.31-0.4-0.4-0.64c-0.1-0.24-0.14-0.5-0.14-0.77
				v-0.57H177.86z"/>
			<path class="st0" d="M193.5,281.16h-11.57v-18.71h11.57v2.58h-8.98v5.39h7.27v2.58h-7.27v5.56h8.98V281.16z"/>
			<path class="st0" d="M203.98,265.64c-0.34-0.25-0.68-0.44-1.03-0.59c-0.35-0.15-0.67-0.22-0.98-0.22c-0.41,0-0.79,0.06-1.15,0.17
				c-0.36,0.11-0.68,0.27-0.95,0.47c-0.27,0.2-0.49,0.44-0.65,0.71c-0.16,0.27-0.24,0.57-0.24,0.9c0,0.38,0.06,0.69,0.18,0.95
				c0.12,0.26,0.32,0.49,0.59,0.7c0.27,0.2,0.62,0.4,1.05,0.58c0.43,0.18,0.95,0.38,1.57,0.59c0.3,0.12,0.61,0.24,0.92,0.35
				c0.31,0.11,0.61,0.23,0.91,0.35c0.3,0.13,0.59,0.26,0.87,0.41s0.56,0.32,0.82,0.52c1.31,1,1.97,2.35,1.97,4.05
				c0,0.85-0.17,1.63-0.52,2.34c-0.35,0.71-0.82,1.31-1.41,1.82c-0.59,0.51-1.28,0.91-2.05,1.19c-0.77,0.28-1.58,0.42-2.43,0.42
				c-1.68,0-3.09-0.5-4.22-1.5c-0.23-0.2-0.43-0.4-0.6-0.61c-0.17-0.2-0.32-0.4-0.45-0.59c-0.13-0.19-0.23-0.37-0.32-0.52
				c-0.09-0.16-0.16-0.29-0.21-0.39l0.63-0.33c0.33-0.2,0.67-0.3,1.03-0.3c0.57,0,1.04,0.2,1.44,0.61l0.21,0.17
				c0.33,0.28,0.7,0.49,1.1,0.65c0.4,0.15,0.87,0.23,1.39,0.23c0.43,0,0.87-0.07,1.32-0.21s0.86-0.34,1.23-0.61
				c0.37-0.27,0.67-0.6,0.91-0.99c0.24-0.4,0.36-0.86,0.36-1.38c0-0.5-0.11-0.92-0.34-1.25c-0.23-0.33-0.52-0.61-0.88-0.85
				c-0.36-0.24-0.77-0.43-1.21-0.6c-0.45-0.16-0.89-0.33-1.32-0.51c-0.64-0.25-1.27-0.51-1.89-0.78c-0.61-0.27-1.16-0.6-1.65-0.99
				c-0.48-0.39-0.87-0.86-1.16-1.42c-0.29-0.56-0.44-1.26-0.44-2.1c0-0.77,0.16-1.45,0.48-2.05c0.32-0.6,0.74-1.11,1.26-1.52
				c0.52-0.41,1.12-0.73,1.79-0.95c0.67-0.22,1.36-0.33,2.06-0.33c0.51,0,1.02,0.09,1.53,0.26c0.5,0.17,0.98,0.4,1.42,0.67
				c0.44,0.27,0.84,0.57,1.2,0.89c0.36,0.32,0.65,0.63,0.89,0.91l-0.67,0.5c-0.37,0.31-0.79,0.47-1.27,0.47
				C204.67,265.94,204.3,265.84,203.98,265.64z"/>
			<path class="st0" d="M208.88,265.03v-2.58h14.22v2.58h-5.81v16.13h-2.58v-16.13H208.88z"/>
			<path class="st0" d="M228.78,281.16h-2.58v-18.71h2.58V281.16z"/>
			<path class="st0" d="M232.71,271.8c0-0.88,0.11-1.73,0.34-2.54c0.23-0.81,0.55-1.57,0.97-2.28c0.42-0.71,0.92-1.35,1.49-1.93
				c0.58-0.58,1.22-1.08,1.93-1.49c0.71-0.42,1.47-0.74,2.28-0.97c0.81-0.23,1.66-0.34,2.54-0.34s1.73,0.11,2.54,0.34
				c0.81,0.23,1.57,0.55,2.28,0.97c0.71,0.42,1.35,0.92,1.93,1.49c0.58,0.58,1.08,1.22,1.49,1.93c0.42,0.71,0.74,1.47,0.97,2.28
				c0.23,0.81,0.34,1.66,0.34,2.54s-0.11,1.73-0.34,2.54c-0.23,0.81-0.55,1.58-0.97,2.29c-0.42,0.71-0.92,1.35-1.49,1.93
				c-0.58,0.58-1.22,1.08-1.93,1.49c-0.71,0.42-1.47,0.74-2.28,0.97c-0.81,0.23-1.66,0.34-2.54,0.34c-1.32,0-2.56-0.25-3.72-0.75
				s-2.17-1.18-3.04-2.05s-1.55-1.88-2.05-3.03C232.96,274.37,232.71,273.13,232.71,271.8z M235.3,271.8c0,0.97,0.18,1.87,0.55,2.72
				c0.37,0.84,0.86,1.58,1.49,2.21c0.63,0.63,1.37,1.13,2.21,1.49c0.84,0.37,1.75,0.55,2.72,0.55c0.97,0,1.87-0.18,2.72-0.55
				c0.84-0.37,1.58-0.86,2.21-1.49c0.63-0.63,1.13-1.37,1.49-2.21c0.37-0.84,0.55-1.75,0.55-2.72c0-0.97-0.18-1.87-0.55-2.72
				s-0.86-1.58-1.49-2.21c-0.63-0.63-1.37-1.13-2.21-1.49c-0.84-0.37-1.75-0.55-2.72-0.55c-0.97,0-1.87,0.18-2.72,0.55
				c-0.84,0.37-1.58,0.86-2.21,1.49c-0.63,0.63-1.13,1.37-1.49,2.21S235.3,270.84,235.3,271.8z M243.74,260.43
				c-0.28,0.38-0.78,0.57-1.5,0.57h-0.97c0.97-1.59,1.5-2.44,1.59-2.53c0.28-0.38,0.78-0.57,1.5-0.57h1.49L243.74,260.43z"/>
			<path class="st0" d="M271.09,281.16h-2.1l-10.69-14.61c-0.07-0.09-0.13-0.2-0.18-0.32c-0.05-0.12-0.09-0.24-0.12-0.36
				c-0.04-0.13-0.07-0.27-0.09-0.42v15.7h-2.58v-18.71h1.84c0.42,0,0.78,0.06,1.1,0.18c0.31,0.12,0.56,0.31,0.74,0.56l9.07,12.49
				c0.24,0.34,0.38,0.77,0.43,1.29v-14.53h2.58V281.16z"/>
		</g>
		<path class="st0" d="M79.37,147.32c0,1.81,0.32,3.68,0.96,5.61c0.64,1.93,1.57,3.68,2.78,5.27c1.21,1.59,2.7,2.87,4.48,3.85
			c1.77,0.98,3.83,1.47,6.17,1.47l3.51-0.45c3.25-0.91,5.93-1.36,8.04-1.36c2.34,0,4.44,0.68,6.29,2.04
			c1.85,1.36,3.49,3.02,4.93,4.99l0.34,0.45c-1.59,1.06-3.4,2.04-5.44,2.95c-2.04,0.91-4.14,1.7-6.29,2.38
			c-2.15,0.68-4.27,1.23-6.35,1.64c-2.08,0.41-3.95,0.62-5.61,0.62c-4.38,0-8.31-0.72-11.78-2.15c-3.48-1.43-6.44-3.46-8.89-6.06
			c-2.46-2.61-4.35-5.72-5.67-9.35c-1.32-3.63-1.98-7.59-1.98-11.9V69.37H43.34v-8.39c0-3.47,4.64-5.21,13.94-5.21h7.59V28.91
			c0-3.4,0.43-6.23,1.3-8.5c0.87-2.27,1.64-3.97,2.32-5.1h10.88v40.56h35.69v13.48H79.37V147.32z"/>
		<path class="st0" d="M120.27,115.48c0-5.59,0.74-11.01,2.21-16.26c1.47-5.25,3.55-10.14,6.23-14.67
			c2.68-4.53,5.89-8.67,9.63-12.41c3.74-3.74,7.87-6.93,12.41-9.57c4.53-2.64,9.4-4.7,14.62-6.18c5.21-1.47,10.61-2.21,16.2-2.21
			c8.46,0,16.41,1.61,23.85,4.82c7.44,3.21,13.94,7.59,19.49,13.14c5.55,5.55,9.93,12.05,13.14,19.49
			c3.21,7.44,4.82,15.39,4.82,23.85c0,8.46-1.61,16.41-4.82,23.85c-3.21,7.44-7.59,13.94-13.14,19.49
			c-5.55,5.55-12.05,9.93-19.49,13.14c-7.44,3.21-15.39,4.82-23.85,4.82c-5.59,0-10.99-0.74-16.2-2.21
			c-5.21-1.47-10.08-3.53-14.62-6.18c-4.53-2.64-8.67-5.84-12.41-9.57c-3.74-3.74-6.95-7.88-9.63-12.41
			c-2.68-4.53-4.76-9.42-6.23-14.67C121.01,126.49,120.27,121.07,120.27,115.48z M134.78,115.48c0,6.57,1.21,12.69,3.63,18.36
			c2.42,5.67,5.74,10.61,9.97,14.84c4.23,4.23,9.2,7.56,14.9,9.97c5.7,2.42,11.8,3.63,18.3,3.63c6.57,0,12.69-1.21,18.36-3.63
			c5.66-2.42,10.61-5.74,14.84-9.97c4.23-4.23,7.55-9.18,9.97-14.84c2.42-5.67,3.63-11.78,3.63-18.36c0-6.57-1.21-12.69-3.63-18.36
			c-2.42-5.67-5.74-10.61-9.97-14.84c-4.23-4.23-9.18-7.55-14.84-9.97c-5.67-2.42-11.78-3.63-18.36-3.63c-6.5,0-12.6,1.21-18.3,3.63
			c-5.7,2.42-10.67,5.74-14.9,9.97c-4.23,4.23-7.55,9.18-9.97,14.84C135.99,102.79,134.78,108.91,134.78,115.48z"/>
		<path class="st0" d="M34.07,309.32h-14.5V146.95h14.5V309.32z M88.01,199.3c2.34-2.72,4.87-4.89,7.59-6.52
			c2.72-1.62,6.04-2.44,9.97-2.44h9.63c-6.88,7.7-13.45,15.03-19.72,21.98c-2.64,2.95-5.36,5.95-8.16,9.01
			c-2.79,3.06-5.46,5.99-7.99,8.78c-2.53,2.8-4.89,5.4-7.08,7.82c-2.19,2.42-4.01,4.42-5.44,6.01c-0.83,0.91-1.59,1.63-2.27,2.15
			c-0.68,0.53-1.21,0.95-1.59,1.25c-0.53,0.3-0.95,0.49-1.25,0.57c0.6,0.3,1.21,0.64,1.81,1.02c0.53,0.38,1.08,0.79,1.64,1.25
			c0.57,0.45,1.15,1.02,1.75,1.7c3.32,4.23,7.21,8.74,11.67,13.54c4.46,4.8,9.01,9.71,13.65,14.73c4.65,5.03,9.18,10.03,13.6,15.01
			c4.42,4.98,8.29,9.71,11.61,14.16h-8.84c-3.85,0-7.14-0.81-9.86-2.44c-2.72-1.62-5.29-3.76-7.71-6.4l-44.64-49.17
			c-0.6-0.6-1.21-1.11-1.81-1.53c-0.6-0.41-1.17-0.77-1.7-1.08c-0.61-0.3-1.21-0.57-1.81-0.79c0.6-0.15,1.21-0.38,1.81-0.68
			c0.53-0.23,1.1-0.57,1.7-1.02c0.6-0.45,1.21-0.98,1.81-1.59L88.01,199.3z"/>
		<path class="st0" d="M147.38,190.35v118.98h-14.5V190.35H147.38z"/>
		<path class="st0" d="M86.08,380.56c0-5.59,0.74-11.01,2.21-16.26c1.47-5.25,3.55-10.14,6.23-14.67c2.68-4.53,5.89-8.67,9.63-12.41
			c3.74-3.74,7.88-6.93,12.41-9.57c4.53-2.64,9.4-4.7,14.62-6.18c5.21-1.47,10.61-2.21,16.2-2.21c8.46,0,16.41,1.61,23.85,4.81
			c7.44,3.21,13.94,7.59,19.49,13.15c5.55,5.55,9.93,12.05,13.14,19.49c3.21,7.44,4.82,15.39,4.82,23.85
			c0,8.46-1.61,16.41-4.82,23.85c-3.21,7.44-7.59,13.94-13.14,19.49c-5.55,5.55-12.05,9.93-19.49,13.14
			c-7.44,3.21-15.39,4.82-23.85,4.82c-5.59,0-10.99-0.74-16.2-2.21c-5.21-1.47-10.08-3.53-14.62-6.17
			c-4.53-2.64-8.67-5.83-12.41-9.57c-3.74-3.74-6.95-7.87-9.63-12.41c-2.68-4.53-4.76-9.42-6.23-14.67
			C86.82,391.57,86.08,386.15,86.08,380.56z M100.58,380.56c0,6.57,1.21,12.69,3.63,18.35c2.42,5.67,5.74,10.61,9.97,14.84
			c4.23,4.23,9.2,7.56,14.9,9.97c5.7,2.42,11.8,3.63,18.3,3.63c6.57,0,12.69-1.21,18.36-3.63c5.67-2.42,10.61-5.74,14.84-9.97
			c4.23-4.23,7.55-9.18,9.97-14.84c2.42-5.67,3.63-11.78,3.63-18.35c0-6.57-1.21-12.69-3.63-18.36c-2.42-5.67-5.74-10.61-9.97-14.84
			c-4.23-4.23-9.18-7.55-14.84-9.97c-5.67-2.42-11.78-3.63-18.36-3.63c-6.5,0-12.6,1.21-18.3,3.63c-5.7,2.42-10.67,5.74-14.9,9.97
			c-4.23,4.23-7.55,9.18-9.97,14.84C101.79,367.87,100.58,373.99,100.58,380.56z"/>
	</g>
</g>
</svg>
